<svg width="18" height="17" viewBox="0 0 18 17" fill="none" xmlns="http://www.w3.org/2000/svg">
<path d="M0.944458 9.00903L8.97224 0.571533L17 9.00903M2.72841 7.13403V14.634C2.72841 14.8827 2.82238 15.1211 2.98966 15.2969C3.15694 15.4728 3.38382 15.5715 3.62038 15.5715H6.29631C6.53288 15.5715 6.75975 15.4728 6.92703 15.2969C7.09431 15.1211 7.18828 14.8827 7.18828 14.634V10.884C7.18828 10.6354 7.28226 10.3969 7.44954 10.2211C7.61682 10.0453 7.84369 9.94653 8.08026 9.94653H9.86421C10.1008 9.94653 10.3277 10.0453 10.4949 10.2211C10.6622 10.3969 10.7562 10.6354 10.7562 10.884V14.634C10.7562 14.8827 10.8502 15.1211 11.0174 15.2969C11.1847 15.4728 11.4116 15.5715 11.6482 15.5715H14.3241C14.5607 15.5715 14.7875 15.4728 14.9548 15.2969C15.1221 15.1211 15.2161 14.8827 15.2161 14.634V7.13403" stroke="#FDFDFD" stroke-width="1.14286" stroke-linecap="round" stroke-linejoin="round"/>
</svg>
